<svg width="30" height="30" viewBox="0 0 30 30" fill="none" xmlns="http://www.w3.org/2000/svg">
<g clip-path="url(#clip0_55_16)">
<path d="M15.625 12.5C15.625 10.4375 13.9375 8.75 11.875 8.75C9.81249 8.75 8.12499 10.4375 8.12499 12.5C8.12499 14.5625 9.81249 16.25 11.875 16.25C13.9375 16.25 15.625 14.5625 15.625 12.5ZM11.875 13.75C11.1875 13.75 10.625 13.1875 10.625 12.5C10.625 11.8125 11.1875 11.25 11.875 11.25C12.5625 11.25 13.125 11.8125 13.125 12.5C13.125 13.1875 12.5625 13.75 11.875 13.75ZM20 16.25C21.3875 16.25 22.5 15.1375 22.5 13.75C22.5 12.3625 21.3875 11.25 20 11.25C18.6125 11.25 17.4875 12.3625 17.5 13.75C17.5 15.1375 18.6125 16.25 20 16.25ZM14.9875 2.5125C8.08749 2.5125 2.48749 8.1125 2.48749 15.0125C2.48749 21.9125 8.08749 27.5125 14.9875 27.5125C21.8875 27.5125 27.4875 21.9125 27.4875 15.0125C27.4875 8.1125 21.8875 2.5125 14.9875 2.5125V2.5125ZM7.29999 21.4C8.14999 20.725 10.1375 20.0125 11.875 20.0125C11.9625 20.0125 12.0625 20.025 12.1625 20.025C12.4625 19.225 13 18.4125 13.7875 17.7C13.0875 17.575 12.425 17.5 11.875 17.5C10.25 17.5 7.63749 18.0625 5.96249 19.2875C5.33749 17.9875 4.98749 16.5375 4.98749 15C4.98749 9.4875 9.47499 5 14.9875 5C20.5 5 24.9875 9.4875 24.9875 15C24.9875 16.5 24.65 17.925 24.05 19.2125C22.8 18.475 21.1 18.125 20 18.125C18.1 18.125 14.375 19.1375 14.375 21.5V24.975C11.5375 24.8125 9.01249 23.4625 7.29999 21.4V21.4Z" fill="#256D85"/>
</g>
<defs>
<clipPath id="clip0_55_16">
<rect width="30" height="30" fill="white"/>
</clipPath>
</defs>
</svg>
