<svg width="30" height="30" viewBox="0 0 30 30" fill="none" xmlns="http://www.w3.org/2000/svg">
<g clip-path="url(#clip0_55_13)">
<path d="M23.75 18.75V23.75H6.25V18.75H23.75ZM25 16.25H5C4.3125 16.25 3.75 16.8125 3.75 17.5V25C3.75 25.6875 4.3125 26.25 5 26.25H25C25.6875 26.25 26.25 25.6875 26.25 25V17.5C26.25 16.8125 25.6875 16.25 25 16.25ZM8.75 23.125C7.725 23.125 6.875 22.2875 6.875 21.25C6.875 20.2125 7.725 19.375 8.75 19.375C9.775 19.375 10.625 20.2125 10.625 21.25C10.625 22.2875 9.7875 23.125 8.75 23.125ZM23.75 6.25V11.25H6.25V6.25H23.75ZM25 3.75H5C4.3125 3.75 3.75 4.3125 3.75 5V12.5C3.75 13.1875 4.3125 13.75 5 13.75H25C25.6875 13.75 26.25 13.1875 26.25 12.5V5C26.25 4.3125 25.6875 3.75 25 3.75ZM8.75 10.625C7.725 10.625 6.875 9.7875 6.875 8.75C6.875 7.7125 7.725 6.875 8.75 6.875C9.775 6.875 10.625 7.725 10.625 8.75C10.625 9.775 9.7875 10.625 8.75 10.625Z" fill="#256D85"/>
</g>
<defs>
<clipPath id="clip0_55_13">
<rect width="30" height="30" fill="white"/>
</clipPath>
</defs>
</svg>
