<svg width="40" height="40" viewBox="0 0 40 40" fill="none" xmlns="http://www.w3.org/2000/svg">
<g clip-path="url(#clip0_4_37)">
<path d="M23.9584 8.33333C23.9584 9.47917 23.0209 10.4167 21.875 10.4167C21.6875 10.4167 21.5104 10.3958 21.3438 10.3438L17.6354 14.0417C17.6875 14.2083 17.7084 14.3958 17.7084 14.5833C17.7084 15.7292 16.7709 16.6667 15.625 16.6667C14.4792 16.6667 13.5417 15.7292 13.5417 14.5833C13.5417 14.3958 13.5625 14.2083 13.6146 14.0417L10.9584 11.3854C10.7917 11.4375 10.6042 11.4583 10.4167 11.4583C10.2292 11.4583 10.0417 11.4375 9.87502 11.3854L5.13544 16.1354C5.18752 16.3021 5.20835 16.4792 5.20835 16.6667C5.20835 17.8125 4.27085 18.75 3.12502 18.75C1.97919 18.75 1.04169 17.8125 1.04169 16.6667C1.04169 15.5208 1.97919 14.5833 3.12502 14.5833C3.31252 14.5833 3.4896 14.6042 3.65627 14.6562L8.40627 9.91667C8.35419 9.75 8.33335 9.5625 8.33335 9.375C8.33335 8.22917 9.27085 7.29167 10.4167 7.29167C11.5625 7.29167 12.5 8.22917 12.5 9.375C12.5 9.5625 12.4792 9.75 12.4271 9.91667L15.0834 12.5729C15.25 12.5208 15.4375 12.5 15.625 12.5C15.8125 12.5 16 12.5208 16.1667 12.5729L19.8646 8.86458C19.8125 8.69792 19.7917 8.52083 19.7917 8.33333C19.7917 7.1875 20.7292 6.25 21.875 6.25C23.0209 6.25 23.9584 7.1875 23.9584 8.33333Z" fill="white"/>
</g>
<defs>
<clipPath id="clip0_4_37">
<rect width="40" height="40" fill="white"/>
</clipPath>
</defs>
</svg>
